<mxfile host="app.diagrams.net" modified="2023-09-15T13:09:43.016Z" agent="Mozilla/5.0 (Windows NT 10.0; Win64; x64) AppleWebKit/537.36 (KHTML, like Gecko) Chrome/116.0.0.0 Safari/537.36" etag="jlDTyCzXvviG5yjihuU-" version="21.7.1" type="device">
  <diagram name="Страница — 1" id="a0_DqcbVPwvIg8B9BlB0">
    <mxGraphModel dx="989" dy="517" grid="1" gridSize="10" guides="1" tooltips="1" connect="1" arrows="1" fold="1" page="1" pageScale="1" pageWidth="827" pageHeight="1169" math="0" shadow="0">
      <root>
        <mxCell id="0" />
        <mxCell id="1" parent="0" />
        <mxCell id="3TMtU7xl0-mvyzPDq7Aj-3" value="Отпрвка сообщения" style="edgeStyle=orthogonalEdgeStyle;rounded=0;orthogonalLoop=1;jettySize=auto;html=1;exitX=0.5;exitY=0;exitDx=0;exitDy=0;entryX=0.5;entryY=1;entryDx=0;entryDy=0;" edge="1" parent="1" source="3TMtU7xl0-mvyzPDq7Aj-1" target="3TMtU7xl0-mvyzPDq7Aj-2">
          <mxGeometry relative="1" as="geometry" />
        </mxCell>
        <mxCell id="3TMtU7xl0-mvyzPDq7Aj-5" style="edgeStyle=orthogonalEdgeStyle;rounded=0;orthogonalLoop=1;jettySize=auto;html=1;exitX=0;exitY=0.5;exitDx=0;exitDy=0;" edge="1" parent="1" source="3TMtU7xl0-mvyzPDq7Aj-1" target="3TMtU7xl0-mvyzPDq7Aj-4">
          <mxGeometry relative="1" as="geometry" />
        </mxCell>
        <mxCell id="3TMtU7xl0-mvyzPDq7Aj-8" value="Инфо о не локальной сесии" style="edgeLabel;html=1;align=center;verticalAlign=middle;resizable=0;points=[];" vertex="1" connectable="0" parent="3TMtU7xl0-mvyzPDq7Aj-5">
          <mxGeometry x="-0.1582" y="-2" relative="1" as="geometry">
            <mxPoint x="-19" as="offset" />
          </mxGeometry>
        </mxCell>
        <mxCell id="3TMtU7xl0-mvyzPDq7Aj-12" style="edgeStyle=orthogonalEdgeStyle;rounded=0;orthogonalLoop=1;jettySize=auto;html=1;exitX=1;exitY=0.25;exitDx=0;exitDy=0;entryX=0;entryY=0.25;entryDx=0;entryDy=0;fillColor=#f8cecc;strokeColor=#b85450;" edge="1" parent="1" source="3TMtU7xl0-mvyzPDq7Aj-1" target="3TMtU7xl0-mvyzPDq7Aj-11">
          <mxGeometry relative="1" as="geometry" />
        </mxCell>
        <mxCell id="3TMtU7xl0-mvyzPDq7Aj-1" value="Бот" style="rounded=0;whiteSpace=wrap;html=1;" vertex="1" parent="1">
          <mxGeometry x="410" y="310" width="120" height="60" as="geometry" />
        </mxCell>
        <mxCell id="3TMtU7xl0-mvyzPDq7Aj-2" value="&lt;span style=&quot;color: rgb(0, 0, 0); font-family: sans-serif; font-size: 13.12px; font-style: normal; font-variant-ligatures: normal; font-variant-caps: normal; letter-spacing: normal; orphans: 2; text-align: left; text-indent: 0px; text-transform: none; widows: 2; word-spacing: 0px; -webkit-text-stroke-width: 0px; background-color: rgb(255, 255, 255); text-decoration-thickness: initial; text-decoration-style: initial; text-decoration-color: initial; float: none; display: inline !important;&quot;&gt;user_id&lt;br&gt;&lt;/span&gt;completed" style="rounded=0;whiteSpace=wrap;html=1;" vertex="1" parent="1">
          <mxGeometry x="410" y="180" width="120" height="70" as="geometry" />
        </mxCell>
        <mxCell id="3TMtU7xl0-mvyzPDq7Aj-10" style="edgeStyle=orthogonalEdgeStyle;rounded=0;orthogonalLoop=1;jettySize=auto;html=1;exitX=0.5;exitY=1;exitDx=0;exitDy=0;entryX=0.5;entryY=0;entryDx=0;entryDy=0;" edge="1" parent="1" source="3TMtU7xl0-mvyzPDq7Aj-4" target="3TMtU7xl0-mvyzPDq7Aj-7">
          <mxGeometry relative="1" as="geometry" />
        </mxCell>
        <mxCell id="3TMtU7xl0-mvyzPDq7Aj-4" value="Сервер" style="rounded=0;whiteSpace=wrap;html=1;" vertex="1" parent="1">
          <mxGeometry x="260" y="400" width="120" height="60" as="geometry" />
        </mxCell>
        <mxCell id="3TMtU7xl0-mvyzPDq7Aj-14" style="edgeStyle=orthogonalEdgeStyle;rounded=0;orthogonalLoop=1;jettySize=auto;html=1;exitX=1;exitY=0.5;exitDx=0;exitDy=0;endArrow=none;endFill=0;startArrow=none;startFill=0;dashed=1;entryX=0;entryY=0.5;entryDx=0;entryDy=0;" edge="1" parent="1" source="3TMtU7xl0-mvyzPDq7Aj-7" target="3TMtU7xl0-mvyzPDq7Aj-15">
          <mxGeometry relative="1" as="geometry">
            <mxPoint x="420" y="529.8571428571429" as="targetPoint" />
          </mxGeometry>
        </mxCell>
        <mxCell id="3TMtU7xl0-mvyzPDq7Aj-17" style="edgeStyle=orthogonalEdgeStyle;rounded=0;orthogonalLoop=1;jettySize=auto;html=1;exitX=0.5;exitY=1;exitDx=0;exitDy=0;entryX=0.25;entryY=0;entryDx=0;entryDy=0;" edge="1" parent="1" source="3TMtU7xl0-mvyzPDq7Aj-7" target="3TMtU7xl0-mvyzPDq7Aj-18">
          <mxGeometry relative="1" as="geometry">
            <mxPoint x="360" y="630" as="targetPoint" />
          </mxGeometry>
        </mxCell>
        <mxCell id="3TMtU7xl0-mvyzPDq7Aj-7" value="Ожидание сообщения не сесионная" style="rounded=0;whiteSpace=wrap;html=1;" vertex="1" parent="1">
          <mxGeometry x="260" y="510.0028571428571" width="120" height="60" as="geometry" />
        </mxCell>
        <mxCell id="3TMtU7xl0-mvyzPDq7Aj-13" style="edgeStyle=orthogonalEdgeStyle;rounded=0;orthogonalLoop=1;jettySize=auto;html=1;exitX=0;exitY=0.75;exitDx=0;exitDy=0;entryX=1;entryY=0.75;entryDx=0;entryDy=0;" edge="1" parent="1" source="3TMtU7xl0-mvyzPDq7Aj-11" target="3TMtU7xl0-mvyzPDq7Aj-1">
          <mxGeometry relative="1" as="geometry" />
        </mxCell>
        <mxCell id="3TMtU7xl0-mvyzPDq7Aj-16" style="edgeStyle=orthogonalEdgeStyle;rounded=0;orthogonalLoop=1;jettySize=auto;html=1;exitX=0.5;exitY=1;exitDx=0;exitDy=0;entryX=1;entryY=0.5;entryDx=0;entryDy=0;" edge="1" parent="1" source="3TMtU7xl0-mvyzPDq7Aj-11" target="3TMtU7xl0-mvyzPDq7Aj-15">
          <mxGeometry relative="1" as="geometry" />
        </mxCell>
        <mxCell id="3TMtU7xl0-mvyzPDq7Aj-11" value="Локальная сессия" style="rounded=0;whiteSpace=wrap;html=1;" vertex="1" parent="1">
          <mxGeometry x="570" y="310" width="120" height="60" as="geometry" />
        </mxCell>
        <mxCell id="3TMtU7xl0-mvyzPDq7Aj-19" style="edgeStyle=orthogonalEdgeStyle;rounded=0;orthogonalLoop=1;jettySize=auto;html=1;exitX=0.5;exitY=1;exitDx=0;exitDy=0;entryX=0.75;entryY=0;entryDx=0;entryDy=0;" edge="1" parent="1" source="3TMtU7xl0-mvyzPDq7Aj-15" target="3TMtU7xl0-mvyzPDq7Aj-18">
          <mxGeometry relative="1" as="geometry" />
        </mxCell>
        <mxCell id="3TMtU7xl0-mvyzPDq7Aj-15" value="Или сесионная" style="rounded=0;whiteSpace=wrap;html=1;" vertex="1" parent="1">
          <mxGeometry x="410" y="510.0028571428571" width="120" height="60" as="geometry" />
        </mxCell>
        <mxCell id="3TMtU7xl0-mvyzPDq7Aj-18" value="Комментарий" style="rounded=0;whiteSpace=wrap;html=1;" vertex="1" parent="1">
          <mxGeometry x="330" y="610" width="120" height="60" as="geometry" />
        </mxCell>
        <mxCell id="3TMtU7xl0-mvyzPDq7Aj-20" value="Попробывать достучаться до сесии всех пользователей&amp;nbsp;" style="ellipse;whiteSpace=wrap;html=1;aspect=fixed;" vertex="1" parent="1">
          <mxGeometry x="750" y="270" width="140" height="140" as="geometry" />
        </mxCell>
      </root>
    </mxGraphModel>
  </diagram>
</mxfile>
